<?xml version="1.0" encoding="utf-8"?>
<!-- Generator: Adobe Illustrator 21.0.0, SVG Export Plug-In . SVG Version: 6.00 Build 0)  -->
<svg version="1.1" id="artwork" xmlns="http://www.w3.org/2000/svg" xmlns:xlink="http://www.w3.org/1999/xlink" x="0px" y="0px"
	 viewBox="0 0 155 60" style="enable-background:new 0 0 155 60;" xml:space="preserve">
<style type="text/css">
	.Graphic_x0020_Style_x0020_2{fill:url(#SVGID_1_);}
	.st0{fill:#FFFFFF;fill-opacity:0;}
	.st1{fill:#A7A6A6;}
	.st2{fill:#FFFFFF;stroke:#FFFFFF;stroke-width:0.2;stroke-miterlimit:10;}
	.st3{fill:#FFFFFF;}
	.st4{fill:#5BC9F4;}
	.st5{fill:url(#SVGID_2_);}
	.st6{fill:url(#SVGID_3_);}
	.st7{fill:url(#SVGID_4_);}
</style>
<linearGradient id="SVGID_1_" gradientUnits="userSpaceOnUse" x1="0" y1="-30" x2="-0.7071" y2="-29.2929">
	<stop  offset="0" style="stop-color:#EF4547"/>
	<stop  offset="1" style="stop-color:#C6186D"/>
</linearGradient>
<g>
	<rect class="st0" width="155" height="60"/>
	<g>
		<path d="M140,50H15c-2.8,0-5-2.3-5-5V15c0-2.8,2.3-5,5-5h125c2.8,0,5,2.3,5,5v30C145,47.7,142.8,50,140,50z"/>
	</g>
	<g>
		<g>
			<path class="st1" d="M140,10.8c2.3,0,4.2,1.9,4.2,4.2v30c0,2.3-1.9,4.2-4.2,4.2H15c-2.3,0-4.2-1.9-4.2-4.2V15
				c0-2.3,1.9-4.2,4.2-4.2H140 M140,10H15c-2.8,0-5,2.3-5,5v30c0,2.8,2.3,5,5,5h125c2.8,0,5-2.3,5-5V15C145,12.3,142.8,10,140,10
				L140,10z"/>
		</g>
	</g>
	<g>
		<path class="st2" d="M57.4,20.2c0,0.8-0.2,1.5-0.7,2c-0.6,0.6-1.3,0.9-2.2,0.9c-0.9,0-1.6-0.3-2.2-0.9c-0.6-0.6-0.9-1.3-0.9-2.2
			c0-0.9,0.3-1.6,0.9-2.2c0.6-0.6,1.3-0.9,2.2-0.9c0.4,0,0.8,0.1,1.2,0.3c0.4,0.2,0.7,0.4,0.9,0.7l-0.5,0.5
			c-0.4-0.5-0.9-0.7-1.6-0.7c-0.6,0-1.2,0.2-1.6,0.7c-0.5,0.4-0.7,1-0.7,1.7s0.2,1.3,0.7,1.7c0.5,0.4,1,0.7,1.6,0.7
			c0.7,0,1.2-0.2,1.7-0.7c0.3-0.3,0.5-0.7,0.5-1.2h-2.2v-0.7h2.9C57.4,19.9,57.4,20.1,57.4,20.2z"/>
		<path class="st2" d="M62,17.7h-2.7v1.9h2.5v0.7h-2.5v1.9H62V23h-3.5v-6H62V17.7z"/>
		<path class="st2" d="M65.3,23h-0.8v-5.3h-1.7V17H67v0.7h-1.7V23z"/>
		<path class="st2" d="M69.9,23v-6h0.8v6H69.9z"/>
		<path class="st2" d="M74.1,23h-0.8v-5.3h-1.7V17h4.1v0.7h-1.7V23z"/>
		<path class="st2" d="M83.6,22.2c-0.6,0.6-1.3,0.9-2.2,0.9c-0.9,0-1.6-0.3-2.2-0.9c-0.6-0.6-0.9-1.3-0.9-2.2s0.3-1.6,0.9-2.2
			c0.6-0.6,1.3-0.9,2.2-0.9c0.9,0,1.6,0.3,2.2,0.9c0.6,0.6,0.9,1.3,0.9,2.2C84.5,20.9,84.2,21.6,83.6,22.2z M79.8,21.7
			c0.4,0.4,1,0.7,1.6,0.7s1.2-0.2,1.6-0.7c0.4-0.4,0.7-1,0.7-1.7s-0.2-1.3-0.7-1.7c-0.4-0.4-1-0.7-1.6-0.7s-1.2,0.2-1.6,0.7
			c-0.4,0.4-0.7,1-0.7,1.7S79.3,21.3,79.8,21.7z"/>
		<path class="st2" d="M85.6,23v-6h0.9l2.9,4.7h0l0-1.2V17h0.8v6h-0.8l-3.1-4.9h0l0,1.2V23H85.6z"/>
	</g>
	<path class="st3" d="M78.1,31.8c-2.4,0-4.3,1.8-4.3,4.3c0,2.4,1.9,4.3,4.3,4.3c2.4,0,4.3-1.8,4.3-4.3
		C82.4,33.5,80.5,31.8,78.1,31.8z M78.1,38.6c-1.3,0-2.4-1.1-2.4-2.6c0-1.5,1.1-2.6,2.4-2.6c1.3,0,2.4,1,2.4,2.6
		C80.5,37.5,79.4,38.6,78.1,38.6z M68.8,31.8c-2.4,0-4.3,1.8-4.3,4.3c0,2.4,1.9,4.3,4.3,4.3c2.4,0,4.3-1.8,4.3-4.3
		C73.1,33.5,71.2,31.8,68.8,31.8z M68.8,38.6c-1.3,0-2.4-1.1-2.4-2.6c0-1.5,1.1-2.6,2.4-2.6c1.3,0,2.4,1,2.4,2.6
		C71.2,37.5,70.1,38.6,68.8,38.6z M57.7,33.1v1.8h4.3c-0.1,1-0.5,1.8-1,2.3c-0.6,0.6-1.6,1.3-3.3,1.3c-2.7,0-4.7-2.1-4.7-4.8
		s2.1-4.8,4.7-4.8c1.4,0,2.5,0.6,3.3,1.3l1.3-1.3c-1.1-1-2.5-1.8-4.5-1.8c-3.6,0-6.7,3-6.7,6.6c0,3.6,3.1,6.6,6.7,6.6
		c2,0,3.4-0.6,4.6-1.9c1.2-1.2,1.6-2.9,1.6-4.2c0-0.4,0-0.8-0.1-1.1H57.7z M103.1,34.5c-0.4-1-1.4-2.7-3.6-2.7c-2.2,0-4,1.7-4,4.3
		c0,2.4,1.8,4.3,4.2,4.3c1.9,0,3.1-1.2,3.5-1.9l-1.4-1c-0.5,0.7-1.1,1.2-2.1,1.2c-1,0-1.6-0.4-2.1-1.3l5.7-2.4L103.1,34.5z
		 M97.3,35.9c0-1.6,1.3-2.5,2.2-2.5c0.7,0,1.4,0.4,1.6,0.9L97.3,35.9z M92.6,40h1.9V27.5h-1.9V40z M89.6,32.7L89.6,32.7
		c-0.5-0.5-1.3-1-2.3-1c-2.1,0-4.1,1.9-4.1,4.3c0,2.4,1.9,4.2,4.1,4.2c1,0,1.8-0.5,2.2-1h0.1v0.6c0,1.6-0.9,2.5-2.3,2.5
		c-1.1,0-1.9-0.8-2.1-1.5l-1.6,0.7c0.5,1.1,1.7,2.5,3.8,2.5c2.2,0,4-1.3,4-4.4V32h-1.8V32.7z M87.4,38.6c-1.3,0-2.4-1.1-2.4-2.6
		c0-1.5,1.1-2.6,2.4-2.6c1.3,0,2.3,1.1,2.3,2.6C89.7,37.5,88.7,38.6,87.4,38.6z M111.8,27.5h-4.5V40h1.9v-4.7h2.6
		c2.1,0,4.1-1.5,4.1-3.9S113.9,27.5,111.8,27.5z M111.9,33.5h-2.7v-4.3h2.7c1.4,0,2.2,1.2,2.2,2.1C114,32.4,113.2,33.5,111.9,33.5z
		 M123.4,31.7c-1.4,0-2.8,0.6-3.3,1.9l1.7,0.7c0.4-0.7,1-0.9,1.7-0.9c1,0,1.9,0.6,2,1.6v0.1c-0.3-0.2-1.1-0.5-1.9-0.5
		c-1.8,0-3.6,1-3.6,2.8c0,1.7,1.5,2.8,3.1,2.8c1.3,0,1.9-0.6,2.4-1.2h0.1v1h1.8v-4.8C127.2,33,125.5,31.7,123.4,31.7z M123.2,38.6
		c-0.6,0-1.5-0.3-1.5-1.1c0-1,1.1-1.3,2-1.3c0.8,0,1.2,0.2,1.7,0.4C125.2,37.8,124.2,38.6,123.2,38.6z M133.7,32l-2.1,5.4h-0.1
		l-2.2-5.4h-2l3.3,7.6l-1.9,4.2h1.9l5.1-11.8H133.7z M116.9,40h1.9V27.5h-1.9V40z"/>
	<g>
		<g>
			<g>
				<path class="st4" d="M20.4,17.5C20.1,17.9,20,18.3,20,19V41c0,0.6,0.2,1.1,0.5,1.4l0.1,0.1l12.4-12.4V30v-0.1L20.4,17.5
					L20.4,17.5z"/>
				<linearGradient id="SVGID_2_" gradientUnits="userSpaceOnUse" x1="41.0888" y1="30.0003" x2="16.912" y2="30.0003">
					<stop  offset="0" style="stop-color:#FEE000"/>
					<stop  offset="0.1941" style="stop-color:#FCCF0B"/>
					<stop  offset="0.5469" style="stop-color:#FAB318"/>
					<stop  offset="0.8279" style="stop-color:#F9A21B"/>
					<stop  offset="1" style="stop-color:#F99B1C"/>
				</linearGradient>
				<path class="st5" d="M37,34.3l-4.1-4.1V30v-0.1l4.1-4.1l0.1,0.1l4.9,2.8c1.4,0.8,1.4,2.1,0,2.9L37,34.3L37,34.3z"/>
				<linearGradient id="SVGID_3_" gradientUnits="userSpaceOnUse" x1="34.8146" y1="32.2931" x2="12.0751" y2="55.0326">
					<stop  offset="0" style="stop-color:#EF4547"/>
					<stop  offset="1" style="stop-color:#C6186D"/>
				</linearGradient>
				<path class="st6" d="M37.1,34.2L32.9,30L20.4,42.5c0.5,0.5,1.2,0.5,2.1,0.1L37.1,34.2"/>
				<linearGradient id="SVGID_4_" gradientUnits="userSpaceOnUse" x1="11.9738" y1="4.8659" x2="30.54" y2="23.4321">
					<stop  offset="0" style="stop-color:#279E6F"/>
					<stop  offset="0.3168" style="stop-color:#4DAB6D"/>
					<stop  offset="0.7398" style="stop-color:#6ABA6A"/>
					<stop  offset="1" style="stop-color:#74C169"/>
				</linearGradient>
				<path class="st7" d="M37.1,25.8l-14.6-8.3c-0.9-0.5-1.6-0.4-2.1,0.1L32.9,30L37.1,25.8z"/>
			</g>
		</g>
	</g>
</g>
</svg>
